Coordinates
version=1
nRows=14
nColumns=46
inDegrees=yes

Units are S.I. units (second, meters, Newtons, ...)
Angles are in degrees.

endheader
time	pelvis_tilt	pelvis_list	pelvis_rotation	pelvis_tx	pelvis_ty	pelvis_tz	bb_angle	bb_tx	bb_ty	bb_tz	hip_flexion_r	hip_adduction_r	hip_rotation_r	knee_angle_r	knee_angle_r_beta	ankle_angle_r	subtalar_angle_r	mtp_angle_r	crank_angle_r	hip_flexion_l	hip_adduction_l	hip_rotation_l	knee_angle_l	knee_angle_l_beta	ankle_angle_l	subtalar_angle_l	mtp_angle_l	crank_angle_l	lumbar_extension	lumbar_bending	lumbar_rotation	arm_flex_r	arm_add_r	arm_rot_r	elbow_flex_r	pro_sup_r	wrist_flex_r	wrist_dev_r	arm_flex_l	arm_add_l	arm_rot_l	elbow_flex_l	pro_sup_l	wrist_flex_l	wrist_dev_l
      5.00500000	    -23.19447209	    -11.47158877	     -3.01164196	      0.41199540	      1.13837067	     -0.19278720	      0.00000000	      0.50000000	      0.00000000	      0.25000000	     66.95806937	     10.49585694	     -3.01409699	    106.08831498	      1.85159039	     -5.91203442	    -12.19973459	      0.00000000	      0.00000000	     31.81112661	    -17.77362397	      4.77513747	     23.46552157	      0.40955061	     -8.55254136	     -0.87323608	      0.00000000	      0.00000000	    -50.16821063	      5.46362433	     -2.86631869	     70.74447282	     -1.75079542	     63.71214863	     30.68320478	     57.95352654	      0.00000000	      0.00000000	     43.56157262	    -38.00203641	     23.64166438	     75.29500386	     53.42755585	      0.00000000	      0.00000000
      5.01000000	    -23.15817001	    -11.86807367	     -4.05408315	      0.41235290	      1.13877588	     -0.19368493	      0.00000000	      0.50000000	      0.00000000	      0.25000000	     68.09419627	     11.04801233	     -3.14573214	    106.87555395	      1.86533031	     -5.11520887	    -11.71136122	      0.00000000	      0.00000000	     30.22371266	    -18.74944137	      3.43486735	     22.23974154	      0.38815671	     -9.41481069	      0.19091976	      0.00000000	      0.00000000	    -50.02423417	      5.94488528	     -1.53940589	     71.59960842	     -1.64326860	     66.46074400	     29.12674667	     58.24992992	      0.00000000	      0.00000000	     44.28677004	    -37.22249577	     24.79691783	     72.90913937	     53.18012584	      0.00000000	      0.00000000
      5.01500000	    -23.09544715	    -11.95067748	     -5.11755950	      0.41290365	      1.13966877	     -0.19441219	      0.00000000	      0.50000000	      0.00000000	      0.25000000	     69.12823434	     11.46898945	     -3.03161099	    107.47878919	      1.87585875	     -4.59486431	    -10.84028907	      0.00000000	      0.00000000	     28.48928664	    -19.39515210	      1.80047784	     20.94875899	      0.36562482	    -10.52217895	      1.12100521	      0.00000000	      0.00000000	    -50.03926622	      6.03725176	     -0.73660303	     71.93309551	     -1.54302293	     66.88296801	     28.83263215	     58.28116115	      0.00000000	      0.00000000	     44.30881647	    -37.14797838	     25.30409289	     71.97342319	     53.09640795	      0.00000000	      0.00000000
      5.02000000	    -23.05767867	    -12.03107219	     -6.19309943	      0.41376916	      1.14107492	     -0.19552308	      0.00000000	      0.50000000	      0.00000000	      0.25000000	     70.02764458	     11.86030520	     -2.88904255	    107.84797450	      1.88230225	     -3.89604753	    -10.09118200	      0.00000000	      0.00000000	     26.73362129	    -19.96084787	      0.03512143	     19.63916312	      0.34276806	    -11.70291019	      2.08709293	      0.00000000	      0.00000000	    -50.13997540	      5.99581076	      0.21666073	     72.25688118	     -1.52656989	     67.62336713	     28.37461437	     58.35876654	      0.00000000	      0.00000000	     44.94066549	    -36.40559183	     26.19787817	     70.41387929	     52.93780516	      0.00000000	      0.00000000
      5.02500000	    -23.27124099	    -12.28206447	     -6.79931015	      0.41408188	      1.14232457	     -0.19714100	      0.00000000	      0.50000000	      0.00000000	      0.25000000	     71.13087169	     11.91468191	     -3.16206263	    108.00538135	      1.88504951	     -3.39144433	     -9.82539078	      0.00000000	      0.00000000	     25.68511364	    -20.42243162	     -0.83478957	     18.65759905	      0.32563653	    -13.13586343	      2.82835235	      0.00000000	      0.00000000	    -50.06241178	      6.64538223	      0.88930636	     72.43709344	     -1.23267606	     67.92337706	     28.50764094	     58.43341854	      0.00000000	      0.00000000	     44.78920423	    -36.37002300	     26.43109749	     69.80914596	     52.87170335	      0.00000000	      0.00000000
      5.03000000	    -22.88515785	    -12.24248333	     -7.66561011	      0.41512462	      1.14493151	     -0.19839972	      0.00000000	      0.50000000	      0.00000000	      0.25000000	     71.44399535	     12.18608679	     -2.88415331	    107.99500056	      1.88486834	     -2.70588786	     -9.03250039	      0.00000000	      0.00000000	     23.73439837	    -20.71217792	     -2.75684807	     17.61794838	      0.30749121	    -14.40652498	      3.88283610	      0.00000000	      0.00000000	    -50.36297203	      6.63705430	      2.50845987	     73.29975946	     -2.30174643	     71.40579446	     27.65050250	     59.08813354	      0.00000000	      0.00000000	     47.09628890	    -34.26883143	     28.69502997	     65.33982285	     52.41990975	      0.00000000	      0.00000000
      5.03500000	    -23.01362159	    -12.29648161	     -8.13921106	      0.41564023	      1.14709884	     -0.20020369	      0.00000000	      0.50000000	      0.00000000	      0.25000000	     72.23421297	     12.02889100	     -2.98460059	    107.75453129	      1.88067136	     -2.22860270	     -8.71060063	      0.00000000	      0.00000000	     22.85026507	    -20.87701621	     -3.81166938	     17.03838909	      0.29737599	    -15.95811671	      4.40255953	      0.00000000	      0.00000000	    -50.49065807	      7.17655049	      2.81902388	     73.84481300	     -2.24237628	     71.32433049	     27.64078794	     59.06202972	      0.00000000	      0.00000000	     46.66947830	    -34.15247105	     29.08045845	     65.13509754	     52.44021139	      0.00000000	      0.00000000
      5.04000000	    -22.63376611	    -12.01577505	     -8.76185064	      0.41658594	      1.15032386	     -0.20149087	      0.00000000	      0.50000000	      0.00000000	      0.25000000	     72.31954570	     12.05970772	     -2.49361819	    107.40977987	      1.87465431	     -1.19506583	     -7.71422247	      0.00000000	      0.00000000	     21.20151751	    -20.70773455	     -5.50757350	     16.25630859	      0.28372611	    -17.50108860	      4.91513949	      0.00000000	      0.00000000	    -50.94866033	      7.05279791	      3.62596633	     74.13609473	     -2.58578374	     72.75158639	     27.57981108	     59.43284753	      0.00000000	      0.00000000	     48.28875230	    -33.09930608	     31.02898992	     62.34001565	     52.26963053	      0.00000000	      0.00000000
      5.04500000	    -22.55296934	    -11.77104767	     -9.22834498	      0.41703680	      1.15330902	     -0.20303440	      0.00000000	      0.50000000	      0.00000000	      0.25000000	     72.63464090	     11.96113489	     -2.16023830	    106.84121660	      1.86473101	     -0.38446370	     -7.17875484	      0.00000000	      0.00000000	     20.32433181	    -20.50220193	     -6.72263555	     16.00464463	      0.27933374	    -19.15675817	      4.98220768	      0.00000000	      0.00000000	    -51.28792975	      7.19715088	      3.78352098	     74.48361284	     -2.46417891	     72.78057238	     27.75476803	     59.46714332	      0.00000000	      0.00000000	     48.32445628	    -32.87192792	     30.97349543	     61.68714000	     52.17532357	      0.00000000	      0.00000000
      5.05000000	    -22.53371778	    -11.58789354	     -9.56397413	      0.41732464	      1.15646685	     -0.20446495	      0.00000000	      0.50000000	      0.00000000	      0.25000000	     72.86338473	     11.80040553	     -1.92317280	    106.11153269	      1.85199562	      0.82430740	     -6.39966736	      0.00000000	      0.00000000	     19.81136622	    -20.36002103	     -7.66992044	     16.14360368	      0.28175904	    -20.70723424	      4.91196479	      0.00000000	      0.00000000	    -51.61529694	      7.43272130	      3.88552694	     74.88767139	     -2.42041087	     72.69458744	     27.89893012	     59.46941485	      0.00000000	      0.00000000	     48.44351994	    -32.57249813	     30.72987749	     60.98051709	     52.04771212	      0.00000000	      0.00000000
      5.05500000	    -22.46156032	    -11.16450486	     -9.86506603	      0.41754052	      1.15983951	     -0.20603808	      0.00000000	      0.50000000	      0.00000000	      0.25000000	     72.91619252	     11.53925920	     -1.38176175	    105.28422084	      1.83755630	      2.34748234	     -5.32814628	      0.00000000	      0.00000000	     19.39604312	    -19.92047770	     -8.56315600	     16.51847157	      0.28830172	    -22.08063111	      4.57403105	      0.00000000	      0.00000000	    -51.97061420	      7.43180068	      3.92690936	     75.25563897	     -2.64532685	     72.40528880	     28.26693018	     59.46169136	      0.00000000	      0.00000000	     48.86769603	    -31.87412814	     29.80737492	     59.67087384	     51.75558850	      0.00000000	      0.00000000
      5.06000000	    -22.57583116	    -10.87998735	    -10.15423556	      0.41729534	      1.16303393	     -0.20719509	      0.00000000	      0.50000000	      0.00000000	      0.25000000	     73.05660189	     11.45235257	     -1.05646590	    104.22677190	      1.81910034	      3.48248898	     -5.21979102	      0.00000000	      0.00000000	     19.51284910	    -19.72500256	     -9.09530752	     17.41792413	      0.30400013	    -23.24012502	      4.23719705	      0.00000000	      0.00000000	    -52.25891184	      7.52142153	      3.94876933	     75.62975842	     -2.63128295	     72.22597138	     28.55208622	     59.45546901	      0.00000000	      0.00000000	     49.01169162	    -31.65685167	     29.59678251	     59.43265615	     51.69845904	      0.00000000	      0.00000000
      5.06500000	    -22.71552453	    -10.39480694	    -10.46257679	      0.41708091	      1.16625953	     -0.20866411	      0.00000000	      0.50000000	      0.00000000	      0.25000000	     73.06933503	     11.24560445	     -0.39410075	    103.04097565	      1.79840429	      5.35721367	     -3.72583260	      0.00000000	      0.00000000	     19.75563669	    -19.23710553	     -9.34837178	     18.49532263	      0.32280428	    -24.27919424	      3.15948678	      0.00000000	      0.00000000	    -52.47679367	      7.40751990	      3.97026685	     75.73926220	     -3.31383663	     71.58203149	     29.94686692	     59.50404108	      0.00000000	      0.00000000	     49.12468374	    -30.79670949	     28.64506002	     58.79805803	     51.51764253	      0.00000000	      0.00000000
      5.07000000	    -22.76141414	     -9.96779403	    -10.78393878	      0.41661604	      1.16964252	     -0.20977662	      0.00000000	      0.50000000	      0.00000000	      0.25000000	     72.87283169	     11.17264969	      0.10311306	    101.66375644	      1.77436728	      6.68349535	     -3.81350149	      0.00000000	      0.00000000	     20.09264051	    -18.89653019	     -9.61199892	     19.91474902	      0.34757794	    -25.16413736	      2.49613538	      0.00000000	      0.00000000	    -52.89522285	      7.25939913	      3.94269991	     76.13282332	     -3.47536837	     71.29039450	     30.34655026	     59.48978312	      0.00000000	      0.00000000	     49.32868208	    -30.71995056	     28.32030761	     58.75601064	     51.47755690	      0.00000000	      0.00000000
